<?xml version="1.0" standalone="no"?>
<!DOCTYPE svg PUBLIC "-//W3C//DTD SVG 20010904//EN"
 "http://www.w3.org/TR/2001/REC-SVG-20010904/DTD/svg10.dtd">
<svg version="1.0" xmlns="http://www.w3.org/2000/svg"
 width="676.000000pt" height="584.000000pt" viewBox="0 0 676.000000 584.000000"
 preserveAspectRatio="xMidYMid meet">

<g transform="translate(0.000000,584.000000) scale(0.100000,-0.100000)"
fill="#ffffff" stroke="none">
<path d="M 2970 5165 c161 -51 273 -146 343 -292 l42 -88 0 -120 c-1 -107 -4
-127 -27 -182 -54 -128 -110 -190 -259 -289 -115 -77 -185 -148 -231 -235
l-33 -64 0 -160 c0 -156 1 -162 29 -218 41 -84 129 -173 248 -251 116 -76 184
-148 228 -241 51 -108 62 -214 35 -319 -50 -190 -200 -341 -385 -387 -83 -21
-496 -17 -613 5 -505 97 -919 440 -1102 914 -19 51 -47 141 -62 200 -23 94
-26 128 -26 277 0 94 5 206 12 250 86 559 531 1047 1081 1184 132 33 218 40
450 37 171 -3 226 -7 270 -21z m2597 11 c4 -4 -217 -230 -492 -502 l-500 -493
-370 0 c-413 -1 -466 5 -562 60 -75 43 -161 131 -200 204 -56 107 -67 265 -26
390 39 120 148 242 272 303 l75 37 170 6 c264 9 1623 5 1633 -5z m-1137 -1889
c186 -44 350 -117 520 -230 95 -64 300 -269 368 -369 107 -158 188 -353 229
-553 25 -125 25 -416 -1 -533 -72 -337 -260 -635 -533 -849 -202 -158 -452
-261 -710 -293 -109 -14 -421 -14 -493 0 -190 35 -376 216 -410 399 -31 165
23 351 132 460 27 27 88 75 134 107 197 133 284 277 284 467 0 185 -77 299
-312 464 -121 86 -149 114 -191 198 -43 86 -61 163 -61 260 0 78 4 99 31 162
61 143 135 223 273 293 94 48 109 50 380 46 228 -4 266 -7 360 -29z m-1425
-1858 c184 -81 300 -212 341 -385 27 -118 1 -241 -78 -362 -52 -80 -122 -142
-218 -191 l-75 -39 -932 -4 c-830 -3 -930 -2 -923 12 9 17 558 561 835 828
l180 174 410 -6 c395 -5 412 -6 460 -27z"/>
</g>
</svg>